<svg width="51" height="50" viewBox="0 0 51 50" fill="none" xmlns="http://www.w3.org/2000/svg">
<path d="M33.5136 18.7491C28.9951 14.234 21.5846 14.234 17.0695 18.7491C14.29 21.5286 13.1057 25.5334 13.9108 29.372C14.4024 31.6904 16.0174 34.5799 16.8671 36.7064C17.4639 38.2021 18.0245 39.7387 18.44 41.1349C18.7255 42.0805 19.5483 42.6937 20.5337 42.6937H30.0483C31.0373 42.6937 31.86 42.0805 32.1455 41.1349C32.5598 39.7387 33.1204 38.2021 33.7185 36.7064C34.5412 34.6466 36.1866 31.674 36.6712 29.372C37.4775 25.5334 36.2931 21.5297 33.5136 18.7491ZM20.5594 43.8652V45.2719C20.5594 47.8759 22.6894 50.0059 25.2898 50.0059C27.8938 50.0059 30.0238 47.8759 30.0238 45.2719V43.8652H20.5594ZM25.8773 39.191C25.8773 39.961 24.7058 39.961 24.7058 39.191V37.1207C24.7058 36.3506 25.8773 36.3506 25.8773 37.1207V39.191ZM26.9786 32.3774C26.8592 32.6068 25.8247 34.7063 25.8247 34.7063C25.6222 35.1581 24.9657 35.1709 24.7597 34.7063C24.3981 33.9 23.9966 33.1311 23.6057 32.3774C22.5443 30.3434 21.5495 28.4358 21.5495 26.3467C21.5495 24.5222 22.5279 23.3472 23.779 22.8299C26.2905 21.7919 29.0372 23.4572 29.0372 26.3467C29.0348 28.4358 28.0366 30.3434 26.9786 32.3774ZM25.2898 33.11C25.5052 32.6782 25.7275 32.2545 25.9464 31.8355C26.9353 29.9408 27.8634 28.1561 27.8634 26.3456C27.8634 22.8124 22.7175 22.8124 22.7175 26.3456C22.7175 28.1572 23.6467 29.942 24.6345 31.8355C24.8545 32.2545 25.0768 32.6793 25.2898 33.11ZM39.4448 11.5411C42.1389 13.9332 44.1155 16.9117 45.273 20.1827C46.4374 23.4666 46.7827 27.0431 46.2116 30.6055C45.06 37.7913 40.4723 43.7166 33.7816 46.5885C32.8629 46.9806 32.465 48.0023 32.8594 48.921C33.2515 49.8362 34.2662 50.2446 35.1849 49.8502C42.9803 46.5031 48.3778 39.5397 49.719 31.1661C50.3861 26.9928 50.0081 22.7363 48.551 18.7619C47.1572 14.9572 44.8318 11.5727 41.7995 8.88563C41.0563 8.22557 39.9586 8.29813 39.2985 9.04129C38.6385 9.78561 38.7017 10.8834 39.4448 11.5411ZM11.1372 11.5411C11.8804 10.8845 11.94 9.78561 11.28 9.04246C10.6234 8.2993 9.5245 8.22675 8.77901 8.8868C5.75024 11.5738 3.42482 14.9572 2.03097 18.7631C0.575097 22.7375 0.193574 26.9939 0.862994 31.1673C2.20301 39.5409 7.6005 46.5043 15.3972 49.8514C16.3123 50.2458 17.3282 49.8385 17.7226 48.9221C18.117 48.0034 17.7155 46.9818 16.7968 46.5897C10.1085 43.7166 5.51734 37.7924 4.36926 30.6067C3.79815 27.0443 4.13988 23.4678 5.30786 20.1839C6.46647 16.9117 8.44079 13.932 11.1372 11.5411ZM23.9393 11.1818H26.6427V6.04996C26.6427 5.52214 27.2864 5.27404 27.6445 5.64503L31.214 9.35727C32.3948 10.5849 34.3024 8.78616 33.1017 7.53977L26.239 0.404352C25.7275 -0.126971 24.8556 -0.126971 24.3442 0.404352L17.4803 7.53977C16.2761 8.78733 18.1872 10.5849 19.368 9.35727L22.9375 5.64503C23.312 5.25414 23.9662 5.54906 23.9393 6.07922V11.1818Z" fill="white"/>
</svg>
