<svg width="51" height="51" viewBox="0 0 51 51" fill="none" xmlns="http://www.w3.org/2000/svg">
<path fill-rule="evenodd" clip-rule="evenodd" d="M4.16466 24.8909V31.4418C4.16454 31.5805 4.13003 31.717 4.06421 31.8391C3.9984 31.9612 3.90334 32.0651 3.78753 32.1414C3.67173 32.2178 3.5388 32.2642 3.40065 32.2766C3.26249 32.289 3.12342 32.267 2.99588 32.2124C2.90036 32.1822 2.80286 32.1586 2.70407 32.1418C2.38244 32.0875 2.05264 32.1074 1.73991 32.2002C1.42718 32.2929 1.13979 32.4559 0.899739 32.6767C0.659685 32.8976 0.473322 33.1704 0.354906 33.4743C0.23649 33.7783 0.189157 34.1053 0.216528 34.4303C0.2439 34.7553 0.345251 35.0698 0.512828 35.3497C0.680405 35.6295 0.909769 35.8673 1.18338 36.0449C1.45698 36.2225 1.76758 36.3352 2.09142 36.3743C2.41525 36.4134 2.74374 36.3779 3.05176 36.2706C3.17727 36.2271 3.31133 36.2142 3.44282 36.233C3.57431 36.2517 3.69943 36.3016 3.80779 36.3784C3.91616 36.4552 4.00464 36.5567 4.0659 36.6745C4.12715 36.7924 4.15942 36.9232 4.16001 37.056V43.6046H9.82542C10.0072 42.7496 10.477 41.983 11.1563 41.433C11.8356 40.883 12.6832 40.5828 13.5572 40.5828C14.4313 40.5828 15.2788 40.883 15.9581 41.433C16.6374 41.983 17.1072 42.7496 17.289 43.6046H22.8714V36.9939C22.8716 36.7715 22.9601 36.5583 23.1174 36.4012C23.2747 36.244 23.488 36.1557 23.7103 36.1557C23.8364 36.1554 23.9609 36.1838 24.0743 36.2388C24.3244 36.3363 24.5905 36.386 24.8589 36.3854C25.426 36.3854 25.9698 36.1602 26.3708 35.7592C26.7718 35.3582 26.9971 34.8144 26.9971 34.2473C26.9971 33.6803 26.7718 33.1364 26.3708 32.7355C25.9698 32.3345 25.426 32.1092 24.8589 32.1092C24.7169 32.1092 24.5752 32.1233 24.436 32.1511C24.2972 32.1784 24.1615 32.2195 24.0309 32.2737C23.9034 32.3265 23.765 32.347 23.6277 32.3334C23.4905 32.3198 23.3587 32.2725 23.2441 32.1957C23.1295 32.1189 23.0357 32.015 22.971 31.8933C22.9062 31.7715 22.8725 31.6356 22.8729 31.4977V24.8909H16.2398C16.095 24.8907 15.9528 24.8531 15.8269 24.7817C15.701 24.7103 15.5957 24.6075 15.5212 24.4834C15.4468 24.3593 15.4057 24.218 15.402 24.0733C15.3983 23.9286 15.4321 23.7854 15.5001 23.6577C15.6271 23.3481 15.6796 23.0131 15.6535 22.6796C15.6274 22.3461 15.5234 22.0233 15.3498 21.7373C15.1763 21.4513 14.938 21.21 14.6543 21.0328C14.3705 20.8557 14.0491 20.7475 13.7159 20.7172C13.3828 20.6868 13.0471 20.7351 12.736 20.858C12.4249 20.981 12.147 21.1752 11.9246 21.4252C11.7022 21.6751 11.5416 21.9737 11.4556 22.297C11.3696 22.6203 11.3607 22.9593 11.4296 23.2867C11.4601 23.4329 11.5061 23.5755 11.567 23.712C11.624 23.8392 11.6483 23.9786 11.6376 24.1176C11.6269 24.2566 11.5815 24.3906 11.5056 24.5076C11.4298 24.6245 11.3258 24.7206 11.2032 24.787C11.0807 24.8534 10.9435 24.888 10.8041 24.8877L4.16466 24.8909ZM22.8784 4.50079V23.2153H17.317C17.33 23.09 17.3365 22.9641 17.3364 22.8381C17.3364 21.8265 16.9345 20.8562 16.2191 20.1409C15.5038 19.4255 14.5336 19.0237 13.5219 19.0237C12.5103 19.0237 11.54 19.4255 10.8247 20.1409C10.1093 20.8562 9.70746 21.8265 9.70746 22.8381C9.7073 22.9641 9.71378 23.09 9.72686 23.2153H4.16466V17.4335C4.21433 17.4335 4.264 17.4335 4.31367 17.4335C5.32533 17.4335 6.29555 17.0316 7.0109 16.3162C7.72625 15.6009 8.12813 14.6307 8.12813 13.619C8.12813 12.6073 7.72625 11.6371 7.0109 10.9218C6.29555 10.2064 5.32533 9.80455 4.31367 9.80455C4.264 9.80455 4.21433 9.80455 4.16466 9.80455V4.50079H10.7691C10.9066 4.50126 11.0421 4.46782 11.1635 4.40342C11.285 4.33902 11.3887 4.24566 11.4654 4.13161C11.5422 4.01755 11.5896 3.88633 11.6035 3.74956C11.6175 3.6128 11.5974 3.47471 11.5452 3.34753C11.4928 3.21927 11.453 3.08619 11.4265 2.95018C11.4 2.81257 11.3868 2.67276 11.3869 2.53264C11.3869 1.96558 11.6122 1.42174 12.0131 1.02077C12.4141 0.619796 12.958 0.394531 13.525 0.394531C14.0921 0.394531 14.6359 0.619796 15.0369 1.02077C15.4379 1.42174 15.6631 1.96558 15.6631 2.53264C15.6632 2.67276 15.65 2.81257 15.6235 2.95018C15.6009 3.06703 15.5684 3.18177 15.5265 3.29321C15.4633 3.42105 15.4338 3.56289 15.4407 3.70533C15.4475 3.84777 15.4906 3.98611 15.5658 4.10729C15.641 4.22846 15.7458 4.32847 15.8704 4.39787C15.995 4.46726 16.1352 4.50375 16.2778 4.5039L22.8784 4.50079ZM43.2692 23.2153H37.7241C37.7241 23.1734 37.7241 23.1315 37.7241 23.0903C37.7241 22.0787 37.3222 21.1085 36.6069 20.3931C35.8915 19.6778 34.9213 19.2759 33.9096 19.2759C32.898 19.2759 31.9278 19.6778 31.2124 20.3931C30.4971 21.1085 30.0952 22.0787 30.0952 23.0903C30.0952 23.1315 30.0952 23.1734 30.0952 23.2153H24.5555V4.50079H30.2861C30.099 5.07348 30.0502 5.68235 30.1438 6.27752C30.2373 6.87269 30.4705 7.43725 30.8242 7.92495C31.1779 8.41265 31.6422 8.80962 32.1789 9.08335C32.7156 9.35708 33.3095 9.49979 33.912 9.49979C34.5144 9.49979 35.1084 9.35708 35.6451 9.08335C36.1818 8.80962 36.646 8.41265 36.9997 7.92495C37.3535 7.43725 37.5866 6.87269 37.6802 6.27752C37.7737 5.68235 37.7249 5.07348 37.5378 4.50079H43.2692V11.0843C43.269 11.1884 43.2885 11.2917 43.3266 11.3885C43.3665 11.4913 43.4263 11.5851 43.5026 11.6647C43.5789 11.7442 43.6701 11.8079 43.7711 11.8521C43.8721 11.8962 43.9808 11.9199 44.091 11.9219C44.2012 11.9239 44.3107 11.904 44.4132 11.8635C44.5362 11.8152 44.6635 11.7785 44.7934 11.7541C44.9245 11.7303 45.0576 11.7186 45.1908 11.7192C45.7579 11.7192 46.3017 11.9444 46.7027 12.3454C47.1036 12.7464 47.3289 13.2902 47.3289 13.8573C47.3289 14.4243 47.1036 14.9682 46.7027 15.3691C46.3017 15.7701 45.7579 15.9954 45.1908 15.9954C44.9404 15.9975 44.6917 15.9543 44.4566 15.8681C44.3477 15.8173 44.2291 15.7908 44.1089 15.7905C43.9988 15.7904 43.8898 15.812 43.7881 15.8541C43.6863 15.8962 43.5939 15.9579 43.516 16.0358C43.4382 16.1136 43.3764 16.206 43.3344 16.3078C43.2923 16.4095 43.2707 16.5186 43.2708 16.6287V23.2153H43.2692ZM50.2897 47.6231V31.6808H43.7504C43.6133 31.6803 43.4785 31.6462 43.3577 31.5816C43.2368 31.517 43.1336 31.4238 43.0571 31.3101C42.9805 31.1965 42.933 31.0658 42.9186 30.9295C42.9041 30.7932 42.9233 30.6555 42.9743 30.5283C43.0695 30.2208 43.094 29.8957 43.046 29.5774C42.9979 29.2591 42.8785 28.9557 42.6968 28.69C42.515 28.4243 42.2755 28.2031 41.9963 28.0429C41.717 27.8828 41.4051 27.7878 41.084 27.7651C40.7629 27.7424 40.4407 27.7926 40.1417 27.9118C39.8427 28.0311 39.5745 28.2164 39.3572 28.4539C39.1398 28.6914 38.979 28.975 38.8866 29.2834C38.7942 29.5918 38.7728 29.9171 38.8238 30.235C38.8431 30.3502 38.8719 30.4636 38.91 30.5741C38.9522 30.7 38.964 30.8342 38.9443 30.9656C38.9246 31.0969 38.8739 31.2217 38.7966 31.3297C38.7192 31.4377 38.6173 31.5258 38.4993 31.5867C38.3812 31.6476 38.2504 31.6796 38.1176 31.68H31.576V37.2352C31.6792 37.2267 31.7824 37.2228 31.8864 37.2228C32.898 37.2228 33.8683 37.6247 34.5836 38.3401C35.299 39.0554 35.7008 40.0256 35.7008 41.0373C35.7008 42.0489 35.299 43.0192 34.5836 43.7345C33.8683 44.4499 32.898 44.8517 31.8864 44.8517C31.7816 44.8517 31.6784 44.8471 31.576 44.8393V50.3945H44.483C44.1089 49.6852 43.7069 48.9564 43.2413 48.2013C42.8951 47.6846 42.7197 47.0725 42.7396 46.4509C42.7595 45.8293 42.9738 45.2296 43.3523 44.7361C43.8795 44.0396 44.6524 43.5702 45.5136 43.4237C46.1252 43.3139 46.7558 43.3987 47.3166 43.6662C47.8774 43.9336 48.3401 44.3703 48.6397 44.9146L50.2881 47.6224L50.2897 47.6231Z" fill="white"/>
</svg>
