<svg width="51" height="51" viewBox="0 0 51 51" fill="none" xmlns="http://www.w3.org/2000/svg">
<path d="M10.2169 0.260007C4.73911 0.260007 0.256836 4.74454 0.256836 10.22V13.8753H4.71362V10.22C4.71362 7.13458 7.13109 4.7146 10.2191 4.7146H13.8718V0.257812L10.2169 0.260007ZM36.6399 0.260007V4.71679H40.3002C43.3856 4.71679 45.8056 7.13426 45.8056 10.2222V13.8775H50.2624V10.2222C50.2624 4.74447 45.7779 0.262201 40.3024 0.262201L36.6399 0.260007ZM0.256844 36.6429V40.3031C0.256844 45.7809 4.74137 50.2554 10.2169 50.2554H13.8696V45.8012H10.2169C7.13142 45.8012 4.71143 43.3912 4.71143 40.3033V36.643L0.256844 36.6429ZM45.8056 36.6429V40.3031C45.8056 43.3886 43.3881 45.801 40.3001 45.801H36.6399V50.2578H40.3001C45.7779 50.2578 50.2602 45.7808 50.2602 40.3055V36.6453L45.8056 36.6429Z" fill="white"/>
<path d="M37.389 8.24835C37.3924 8.30864 37.3924 8.37227 37.3924 8.43255C37.3924 8.37227 37.3957 8.30863 37.3991 8.24835H37.389ZM37.389 8.55647C37.3221 11.9893 34.5222 14.7355 31.0894 14.7355C30.9856 14.7355 30.8851 14.7355 30.7813 14.7288V14.8628V14.8661C30.8784 14.8628 30.9755 14.8594 31.076 14.8628H31.0894C32.7606 14.8628 34.3648 15.5259 35.547 16.7081C36.7292 17.8902 37.3923 19.4912 37.3923 21.1657C37.3923 21.2661 37.3889 21.37 37.3822 21.4738H37.3923H37.3956C37.3923 21.4102 37.3923 21.3499 37.3923 21.2896C37.3923 17.8132 40.2021 14.9933 43.6785 14.9866H43.6919C43.7957 14.9833 43.8962 14.9866 44 14.9899V14.8593V14.8526C43.8995 14.856 43.7957 14.8593 43.6919 14.8593C42.0207 14.8593 40.4165 14.1962 39.2343 13.014C38.0521 11.8318 37.389 10.2276 37.389 8.55647ZM24.7729 10.3415C24.7762 10.5023 24.7795 10.6597 24.7795 10.8171C24.7795 10.9042 24.7762 10.9879 24.7762 11.075C24.7795 10.8305 24.7862 10.586 24.7996 10.3415H24.7762H24.7695H24.7729ZM24.7762 11.1888C24.6791 15.3919 22.9409 19.3907 19.9335 22.3277C16.926 25.2682 12.8904 26.9126 8.68742 26.9126C8.42619 26.9126 8.16496 26.9059 7.90374 26.8959C7.90039 27.0064 7.90039 27.1169 7.90039 27.2308V27.2475C8.14822 27.2341 8.3994 27.2308 8.64723 27.2308H8.68407C12.9542 27.2308 17.0467 28.9254 20.0639 31.9429C23.0847 34.9638 24.7794 39.0564 24.7794 43.3262C24.776 43.5874 24.7693 43.852 24.7559 44.1165H24.7794H24.7861C24.7827 43.9558 24.7794 43.7984 24.7794 43.641C24.7794 39.3809 26.4707 35.2917 29.4781 32.274C32.489 29.2599 36.5715 27.5585 40.8348 27.5485H40.8683C41.1329 27.5452 41.3941 27.5519 41.6553 27.5619C41.6553 27.4514 41.6587 27.3375 41.6587 27.2236V27.2103C41.3941 27.2203 41.1329 27.227 40.8683 27.2236C36.6116 27.2236 32.5257 25.5357 29.5116 22.5316C26.4941 19.5274 24.7929 15.4485 24.7762 11.1888Z" fill="white"/>
</svg>
