<svg width="50" height="50" viewBox="0 0 50 50" fill="none" xmlns="http://www.w3.org/2000/svg">
<path d="M41.0696 16.0673C39.3038 16.0673 37.5777 16.5909 36.1095 17.572C34.6413 18.553 33.4969 19.9473 32.8212 21.5787C32.1455 23.2101 31.9687 25.0052 32.3132 26.7371C32.6576 28.4689 33.508 30.0598 34.7566 31.3084C36.0052 32.557 37.596 33.4073 39.3278 33.7518C41.0597 34.0962 42.8548 33.9194 44.4862 33.2437C46.1176 32.568 47.5119 31.4236 48.493 29.9554C49.474 28.4872 49.9976 26.7611 49.9976 24.9953C49.9976 22.6275 49.057 20.3566 47.3826 18.6823C45.7083 17.0079 43.4374 16.0673 41.0696 16.0673ZM41.0696 22.3169H39.284V24.1025H42.8552C43.3288 24.1025 43.7829 24.2906 44.1178 24.6255C44.4527 24.9604 44.6408 25.4145 44.6408 25.8881V27.6737C44.6408 28.1473 44.4527 28.6015 44.1178 28.9363C43.7829 29.2712 43.3288 29.4593 42.8552 29.4593H41.9624C41.9624 29.6961 41.8683 29.9232 41.7009 30.0906C41.5335 30.258 41.3064 30.3521 41.0696 30.3521C40.8328 30.3521 40.6057 30.258 40.4383 30.0906C40.2709 29.9232 40.1768 29.6961 40.1768 29.4593H39.284C38.8104 29.4593 38.3563 29.2712 38.0214 28.9363C37.6865 28.6015 37.4984 28.1473 37.4984 27.6737C37.4984 27.4369 37.5925 27.2098 37.7599 27.0424C37.9273 26.875 38.1544 26.7809 38.3912 26.7809C38.628 26.7809 38.8551 26.875 39.0225 27.0424C39.1899 27.2098 39.284 27.4369 39.284 27.6737H42.8552V25.8881H39.284C38.8104 25.8881 38.3563 25.7 38.0214 25.3651C37.6865 25.0303 37.4984 24.5761 37.4984 24.1025V22.3169C37.4984 21.8433 37.6865 21.3892 38.0214 21.0543C38.3563 20.7194 38.8104 20.5313 39.284 20.5313H40.1768C40.1768 20.2945 40.2709 20.0674 40.4383 19.9C40.6057 19.7326 40.8328 19.6385 41.0696 19.6385C41.3064 19.6385 41.5335 19.7326 41.7009 19.9C41.8683 20.0674 41.9624 20.2945 41.9624 20.5313H42.8552C43.3288 20.5313 43.7829 20.7194 44.1178 21.0543C44.4527 21.3892 44.6408 21.8433 44.6408 22.3169C44.6408 22.5537 44.5467 22.7808 44.3793 22.9482C44.2119 23.1157 43.9848 23.2097 43.748 23.2097C43.5112 23.2097 43.2841 23.1157 43.1167 22.9482C42.9493 22.7808 42.8552 22.5537 42.8552 22.3169H41.0696Z" fill="white"/>
<path d="M33.401 35.794L25.3659 32.2228C25.2508 32.1711 25.126 32.1443 24.9998 32.1443C24.8736 32.1443 24.7489 32.1711 24.6338 32.2228L16.5986 35.794C16.4427 35.8651 16.3105 35.9794 16.2179 36.1235C16.1252 36.2675 16.0759 36.4352 16.0759 36.6065C16.0759 36.7778 16.1252 36.9454 16.2179 37.0895C16.3105 37.2336 16.4427 37.3479 16.5986 37.4189L24.6338 40.9901C24.7489 41.0419 24.8736 41.0686 24.9998 41.0686C25.126 41.0686 25.2508 41.0419 25.3659 40.9901L33.401 37.4189C33.5569 37.3479 33.6891 37.2336 33.7817 37.0895C33.8744 36.9454 33.9237 36.7778 33.9237 36.6065C33.9237 36.4352 33.8744 36.2675 33.7817 36.1235C33.6891 35.9794 33.5569 35.8651 33.401 35.794Z" fill="white"/>
<path d="M8.92799 16.0673C7.1622 16.0673 5.43607 16.5909 3.96787 17.572C2.49967 18.553 1.35535 19.9473 0.679607 21.5787C0.00386836 23.2101 -0.172936 25.0052 0.171553 26.7371C0.516041 28.4689 1.36635 30.0598 2.61495 31.3084C3.86355 32.557 5.45437 33.4073 7.18623 33.7518C8.91809 34.0962 10.7132 33.9194 12.3446 33.2437C13.976 32.568 15.3703 31.4236 16.3513 29.9554C17.3324 28.4872 17.856 26.7611 17.856 24.9953C17.856 23.8229 17.6251 22.6619 17.1764 21.5787C16.7277 20.4955 16.0701 19.5113 15.241 18.6823C14.412 17.8532 13.4278 17.1956 12.3446 16.7469C11.2614 16.2983 10.1004 16.0673 8.92799 16.0673ZM13.1331 29.2004C13.0501 29.2841 12.9513 29.3505 12.8425 29.3958C12.7337 29.4411 12.6171 29.4645 12.4992 29.4645C12.3813 29.4645 12.2646 29.4411 12.1558 29.3958C12.047 29.3505 11.9483 29.2841 11.8653 29.2004L10.0797 27.4148C9.67134 27.6093 9.22036 27.6972 8.76884 27.6703C8.31732 27.6434 7.87996 27.5027 7.49755 27.2611C7.11514 27.0195 6.80014 26.685 6.58192 26.2888C6.3637 25.8926 6.24937 25.4476 6.2496 24.9953C6.25115 24.4427 6.42358 23.9041 6.74326 23.4534C7.06294 23.0026 7.5142 22.6618 8.0352 22.4776V20.5313C8.0352 20.2945 8.12926 20.0674 8.29669 19.9C8.46412 19.7326 8.69121 19.6385 8.92799 19.6385C9.16478 19.6385 9.39187 19.7326 9.5593 19.9C9.72673 20.0674 9.82079 20.2945 9.82079 20.5313V22.4776C10.3418 22.6618 10.7931 23.0026 11.1127 23.4534C11.4324 23.9041 11.6048 24.4427 11.6064 24.9953C11.604 25.3944 11.5125 25.7879 11.3386 26.147L13.1242 27.9326C13.2084 28.015 13.2755 28.1133 13.3216 28.2218C13.3677 28.3303 13.3919 28.4468 13.3927 28.5646C13.3935 28.6825 13.371 28.7994 13.3265 28.9085C13.2819 29.0176 13.2162 29.1168 13.1331 29.2004Z" fill="white"/>
<path d="M8.92649 25.8895C9.41957 25.8895 9.81929 25.4898 9.81929 24.9967C9.81929 24.5037 9.41957 24.1039 8.92649 24.1039C8.43341 24.1039 8.03369 24.5037 8.03369 24.9967C8.03369 25.4898 8.43341 25.8895 8.92649 25.8895Z" fill="white"/>
<path d="M23.2131 8.92976C23.7062 8.92976 24.1059 8.53004 24.1059 8.03696C24.1059 7.54388 23.7062 7.14417 23.2131 7.14417C22.72 7.14417 22.3203 7.54388 22.3203 8.03696C22.3203 8.53004 22.72 8.92976 23.2131 8.92976Z" fill="white"/>
<path d="M26.7854 8.92976C27.2785 8.92976 27.6782 8.53004 27.6782 8.03696C27.6782 7.54388 27.2785 7.14417 26.7854 7.14417C26.2923 7.14417 25.8926 7.54388 25.8926 8.03696C25.8926 8.53004 26.2923 8.92976 26.7854 8.92976Z" fill="white"/>
<path d="M24.1065 42.6837L23.9101 42.6212L16.0713 39.1393V45.5317C16.0716 45.7035 16.1215 45.8715 16.215 46.0156C16.3084 46.1597 16.4414 46.2738 16.598 46.3442L24.1065 49.9957V42.6837Z" fill="white"/>
<path d="M26.089 42.6212L25.8926 42.6837V49.9957L33.401 46.3442C33.5577 46.2738 33.6907 46.1597 33.7841 46.0156C33.8775 45.8715 33.9274 45.7035 33.9278 45.5317V39.1393L26.089 42.6212Z" fill="white"/>
<path d="M20.5348 14.7124V15.1766H24.106V10.5519C23.7376 10.6856 23.3444 10.7368 22.9541 10.7019C22.5638 10.6671 22.1859 10.547 21.847 10.3501C21.5082 10.1533 21.2167 9.88448 20.993 9.56268C20.7694 9.24089 20.6191 8.87394 20.5527 8.48772C20.4864 8.10151 20.5056 7.70544 20.609 7.32745C20.7124 6.94946 20.8974 6.59877 21.1511 6.30011C21.4049 6.00145 21.721 5.7621 22.0773 5.59895C22.4336 5.43579 22.8214 5.35281 23.2132 5.35585C23.8739 5.35979 24.5099 5.60781 24.9988 6.05223C25.4877 5.60781 26.1237 5.35979 26.7844 5.35585C27.1763 5.35281 27.564 5.43579 27.9203 5.59895C28.2766 5.7621 28.5928 6.00145 28.8465 6.30011C29.1002 6.59877 29.2853 6.94946 29.3887 7.32745C29.4921 7.70544 29.5113 8.10151 29.4449 8.48772C29.3785 8.87394 29.2282 9.24089 29.0046 9.56268C28.781 9.88448 28.4895 10.1533 28.1506 10.3501C27.8118 10.547 27.4338 10.6671 27.0435 10.7019C26.6532 10.7368 26.26 10.6856 25.8916 10.5519V15.1766H29.4628V14.7124C30.8962 13.7547 31.9835 12.3614 32.5643 10.7384C33.145 9.11529 33.1884 7.34848 32.688 5.69886C32.1876 4.04924 31.17 2.60428 29.7854 1.57738C28.4008 0.550482 26.7227 -0.00390625 24.9988 -0.00390625C23.275 -0.00390625 21.5968 0.550482 20.2122 1.57738C18.8276 2.60428 17.81 4.04924 17.3096 5.69886C16.8092 7.34848 16.8526 9.11529 17.4334 10.7384C18.0141 12.3614 19.1015 13.7547 20.5348 14.7124Z" fill="white"/>
<path d="M20.5337 16.9615C20.5352 17.5141 20.7077 18.0527 21.0274 18.5035C21.347 18.9542 21.7983 19.295 22.3193 19.4792V19.6399C22.3193 20.1135 22.5074 20.5677 22.8423 20.9026C23.1771 21.2374 23.6313 21.4255 24.1049 21.4255H25.8905C26.3641 21.4255 26.8182 21.2374 27.1531 20.9026C27.488 20.5677 27.6761 20.1135 27.6761 19.6399V19.4792C28.1971 19.295 28.6483 18.9542 28.968 18.5035C29.2877 18.0527 29.4601 17.5141 29.4617 16.9615H20.5337Z" fill="white"/>
<path d="M14.284 9.81647C14.284 9.74505 14.284 9.68255 14.284 9.62006C12.4651 10.8892 10.8818 12.4664 9.60571 14.2805C10.2774 14.3244 10.9438 14.429 11.5967 14.5929C12.4364 13.5181 13.3982 12.5444 14.4625 11.6914C14.3504 11.0725 14.2907 10.4453 14.284 9.81647Z" fill="white"/>
<path d="M35.7113 9.62006C35.7113 9.68255 35.7113 9.74505 35.7113 9.81647C35.7066 10.4573 35.6469 11.0965 35.5327 11.7271C36.5939 12.5806 37.5527 13.5543 38.3897 14.6287C39.0443 14.4521 39.7137 14.3355 40.3895 14.2805C39.1134 12.4664 37.5302 10.8892 35.7113 9.62006Z" fill="white"/>
<path d="M14.632 38.3917C13.5003 37.5137 12.4835 36.4968 11.6054 35.3651C10.9526 35.5291 10.2862 35.6337 9.6145 35.6776C10.8783 37.514 12.4595 39.1103 14.2838 40.3916C14.3401 39.7159 14.4566 39.0466 14.632 38.3917Z" fill="white"/>
<path d="M38.3908 35.3651C37.5128 36.4968 36.496 37.5137 35.3643 38.3917C35.5396 39.0466 35.6562 39.7159 35.7124 40.3916C37.5369 39.1218 39.1209 37.5377 40.3907 35.7133C39.7149 35.6582 39.0455 35.5417 38.3908 35.3651Z" fill="white"/>
</svg>
