<svg width="50" height="50" viewBox="0 0 50 50" fill="none" xmlns="http://www.w3.org/2000/svg">
<path d="M18.3612 45.3525C19.1137 45.5975 19.6425 46.2687 19.6425 47.06V50H30.3563V47.06C30.3563 46.2687 30.885 45.5975 31.6375 45.3525C32.6963 45.0075 33.7188 44.5838 34.6975 44.0863C35.4037 43.7275 36.2512 43.8287 36.8112 44.3875L38.8887 46.465L46.465 38.8887L44.3875 36.8113C43.8275 36.2513 43.7275 35.4025 44.0863 34.6975C44.5838 33.7188 45.0075 32.6963 45.3525 31.6375C45.5975 30.885 46.2687 30.3563 47.06 30.3563H50V19.6425H47.06C46.2687 19.6425 45.5975 19.1137 45.3525 18.3612C45.0075 17.3025 44.5838 16.28 44.0863 15.3012C43.7275 14.5962 43.8287 13.7475 44.3875 13.1875L46.465 11.11L38.8887 3.53375L36.8112 5.61125C36.2512 6.17125 35.4025 6.27125 34.6975 5.9125C33.7188 5.415 32.6963 4.99125 31.6375 4.64625C30.885 4.40125 30.3563 3.73 30.3563 2.93875V0H19.6425V2.94C19.6425 3.73125 19.1137 4.4025 18.3612 4.6475C17.3025 4.9925 16.28 5.41625 15.3013 5.91375C14.5963 6.2725 13.7475 6.17125 13.1875 5.6125L11.11 3.535L3.53375 11.1112L5.61125 13.1888C6.17125 13.7488 6.27125 14.5975 5.9125 15.3025C5.415 16.2812 4.99125 17.3038 4.64625 18.3625C4.40125 19.115 3.73 19.6437 2.93875 19.6437H0V30.3575H2.94C3.73125 30.3575 4.4025 30.8863 4.6475 31.6388C4.9925 32.6975 5.41625 33.72 5.91375 34.6987C6.2725 35.4037 6.17125 36.2525 5.6125 36.8125L3.535 38.89L11.1112 46.4663L13.1887 44.3888C13.7487 43.8288 14.5975 43.7288 15.3025 44.0875C16.28 44.585 17.3025 45.0088 18.3612 45.3525ZM26.25 41.1863V36.25C28.3175 36.25 30 34.5675 30 32.5C30 30.4325 28.3175 28.75 26.25 28.75V26.25H30C30.69 26.25 31.25 25.6912 31.25 25V23.75C31.25 23.06 31.8113 22.5 32.5 22.5C33.1888 22.5 33.75 23.06 33.75 23.75V25C33.75 25.6912 34.31 26.25 35 26.25H41.1863C40.5788 34.225 34.225 40.5788 26.25 41.1863ZM26.25 15V8.81375C34.225 9.42125 40.5788 15.775 41.1863 23.75H36.25C36.25 21.6825 34.5675 20 32.5 20C30.4325 20 28.75 21.6825 28.75 23.75H26.25V20C26.25 19.3088 25.69 18.75 25 18.75H23.75C23.0613 18.75 22.5 18.19 22.5 17.5C22.5 16.81 23.0613 16.25 23.75 16.25H25C25.69 16.25 26.25 15.6912 26.25 15ZM23.75 8.81375V13.75C21.6825 13.75 20 15.4325 20 17.5C20 19.5675 21.6825 21.25 23.75 21.25V23.75H20C19.31 23.75 18.75 24.3088 18.75 25V26.25C18.75 26.94 18.1887 27.5 17.5 27.5C16.8113 27.5 16.25 26.94 16.25 26.25V25C16.25 24.3088 15.69 23.75 15 23.75H8.81375C9.42125 15.775 15.775 9.42125 23.75 8.81375ZM8.81375 26.25H13.75C13.75 28.3175 15.4325 30 17.5 30C19.5675 30 21.25 28.3175 21.25 26.25H23.75V30C23.75 30.6912 24.31 31.25 25 31.25H26.25C26.9387 31.25 27.5 31.81 27.5 32.5C27.5 33.19 26.9387 33.75 26.25 33.75H25C24.31 33.75 23.75 34.3088 23.75 35V41.1863C15.775 40.5788 9.42125 34.225 8.81375 26.25Z" fill="white"/>
</svg>
