<svg width="45" height="50" viewBox="0 0 45 50" fill="none" xmlns="http://www.w3.org/2000/svg">
<path d="M21.25 28.5471V29.6547C21.25 30.2421 21.7268 30.719 22.3142 30.719C22.9016 30.719 23.3785 30.2421 23.3785 29.6547V28.5471C23.3785 27.9597 22.9016 27.4828 22.3142 27.4828C21.7268 27.4828 21.25 27.9597 21.25 28.5471ZM16.2773 22.9111V19.6863C16.2773 18.0296 16.9571 16.5192 18.0522 15.4242C19.1441 14.3285 20.6544 13.6494 22.3148 13.6494C23.9722 13.6494 25.4806 14.3292 26.5744 15.4223C27.6713 16.5199 28.3511 18.0289 28.3511 19.6863V22.9111H28.4698C29.0572 22.9111 29.5341 23.3879 29.5341 23.9753V33.2376C29.5341 33.7339 29.1936 34.1517 28.7331 34.2692C26.6001 34.9578 24.4584 35.2889 22.3136 35.2826C20.1474 35.2757 17.9881 34.9245 15.842 34.2516C15.3871 34.1103 15.0956 33.6906 15.0956 33.2376L15.0937 23.9753C15.0937 23.3879 15.5706 22.9111 16.158 22.9111H16.2773ZM26.2226 22.9111V19.6863C26.2226 18.6113 25.7828 17.6331 25.076 16.9245C24.3673 16.2177 23.3898 15.7779 22.3148 15.7779C21.2405 15.7779 20.2623 16.2183 19.5543 16.9263C18.845 17.6319 18.4059 18.6094 18.4059 19.6863V22.9111H26.2226ZM6.25548 30.2139C7.47492 30.5405 8.57184 31.3309 9.2648 32.5164C9.95839 33.7176 10.0985 35.0734 9.76992 36.2997L9.70458 36.5209L18.6389 41.6801L18.7991 41.5123C19.6988 40.6127 20.9427 40.0554 22.3142 40.0554C23.6857 40.0554 24.9296 40.6127 25.8293 41.5123L25.9895 41.6801L34.9238 36.5209L34.8585 36.2997C34.5299 35.0734 34.67 33.7176 35.3636 32.5164C36.0566 31.3309 37.1535 30.5405 38.3729 30.2139L38.5941 30.1598V19.8402L38.3729 19.7861C37.1535 19.4595 36.0566 18.6691 35.3636 17.4836C34.67 16.2824 34.5299 14.9266 34.8585 13.7003L34.9238 13.4791L25.9895 8.31993L25.8293 8.48767C24.9296 9.38733 23.6857 9.94459 22.3142 9.94459C20.9427 9.94459 19.6988 9.38733 18.7991 8.48767L18.6389 8.31993L9.70458 13.4791L9.76992 13.7003C10.0985 14.9266 9.95839 16.2824 9.2648 17.4836C8.57184 18.6691 7.47492 19.4595 6.25548 19.7861L6.03434 19.8402V30.1598L6.25548 30.2139ZM8.64283 38.3598C8.32368 38.7097 7.94799 39.0194 7.52078 39.2751L7.45544 39.316C6.26616 40.0026 4.91039 40.1427 3.68405 39.8142C2.45582 39.4856 1.35261 38.6871 0.667185 37.4997C-0.018237 36.3073 -0.158965 34.954 0.168982 33.7283C0.497557 32.5013 1.29606 31.3981 2.48409 30.7121C2.9402 30.4494 3.41955 30.2673 3.90582 30.1598V19.8395C3.42081 19.7321 2.94271 19.5505 2.48911 19.2886C1.29606 18.6019 0.497557 17.4987 0.168982 16.2717C-0.158965 15.046 -0.018237 13.6927 0.667185 12.5022C1.35261 11.3129 2.45582 10.5144 3.68405 10.1858C4.91039 9.85726 6.26616 9.99736 7.45544 10.684L7.52078 10.7249C7.94799 10.9806 8.32305 11.2903 8.64283 11.6402L17.5766 6.4823C17.4252 6.00608 17.3422 5.49845 17.3422 4.97198C17.3422 3.60365 17.8995 2.3616 18.8023 1.45817C19.7051 0.556002 20.9471 0 22.3142 0C23.6825 0 24.9246 0.557259 25.828 1.46006C26.7302 2.36285 27.2862 3.60491 27.2862 4.97198C27.2862 5.49845 27.2033 6.00608 27.0519 6.4823L35.9856 11.6402C36.3047 11.2903 36.6804 10.9806 37.1076 10.7249L37.173 10.684C38.3623 9.99736 39.718 9.85726 40.9444 10.1858C42.1726 10.5144 43.2758 11.3129 43.9612 12.5003C44.6467 13.6927 44.7874 15.046 44.4594 16.2717C44.1309 17.4987 43.3324 18.6019 42.1443 19.2879C41.6882 19.5506 41.2089 19.7327 40.7226 19.8402V30.1605C41.2076 30.2679 41.6857 30.4494 42.1393 30.7114C43.3324 31.3981 44.1309 32.5013 44.4594 33.7283C44.7874 34.954 44.6467 36.3073 43.9612 37.4953C43.2758 38.6871 42.1726 39.4856 40.9444 39.8142C39.718 40.1427 38.3623 40.0026 37.173 39.316L37.1076 39.2751C36.6804 39.0194 36.3054 38.7097 35.9856 38.3598L27.0519 43.5177C27.2033 43.9939 27.2862 44.5015 27.2862 45.028C27.2862 46.3964 26.7289 47.6384 25.8261 48.5418C24.9233 49.444 23.6813 50 22.3142 50C20.9459 50 19.7038 49.4427 18.8004 48.5399C17.8982 47.6371 17.3422 46.3951 17.3422 45.028C17.3422 44.5015 17.4252 43.9939 17.5766 43.5177L8.64283 38.3598Z" fill="white"/>
</svg>
